<svg xmlns="http://www.w3.org/2000/svg" width="24" height="24" viewBox="0 0 308 308"><path fill="currentColor" d="M134.44 294.4H76.801c-21.066 0-38.4-17.339-38.4-38.41V51.13c.005-21.067 17.337-38.401 38.4-38.401h153.6c21.066 0 38.4 17.339 38.4 38.41v204.86c-.005 21.067-17.337 38.401-38.4 38.401h-54.998c2.441-20.987 3.446-32.312 8.411-38.444 3.995-4.934 9.148-10.154 9.353-16.328.299-9.016-4.215-13.791-8.486-17.851-7.21-6.854-13.064-10.481-23.161-11.12a41.428 41.428 0 0 0-7.492.199c-2.726.372-6.749.967-9.684-1.732-3.988-3.667-8.109-8.238-12.465-17.979-2.982-6.668-3.348-14.955-2.378-20.262 1.547-8.46 7.975-14.99 20.416-16.427 11.736-1.356 22.152-3.576 31.262-7.301 33.064-13.522 49.896-51.57 61.802-99.52a7.498 7.498 0 0 0-8.541-9.195c-72.588 12.506-118.45 39.311-116.47 91.692.138 3.634.059 8.805-1.472 11.782-1.523 2.961-2.674 4.791-4.054 7.519-.77 1.523-2.016 2.772-3.794 2.885-1.359.087-3.518-.973-6.5-5.501-3.08-4.676-4.632-10.84-5.953-23.621-1.042-10.083-12.755-11.104-20.808-8.611-11.742 3.635-14.491 16.732-7.838 25.002 14.435 17.942 32.027 45.306 36.838 53.033 3.733 5.995 16.851 23.599 23.345 37.64a26.668 26.668 0 0 1 1.974 10.61c-.023 6.466 1.054 12.577 1.683 18.413 0 0 2.284 16.14 3.05 35.115z"/></svg>