<svg width="100%" height="100%" xmlns="http://www.w3.org/2000/svg" xml:space="preserve"
	style="fill-rule:evenodd;clip-rule:evenodd;stroke-linejoin:round;stroke-miterlimit:2" viewBox="0 0 252 308">
	<path fill="url(#linear)"
		d="M104.742,307.2l-62.862,-0c-22.975,0 -41.88,-18.91 -41.88,-41.891l0,-223.428c0.005,-22.976 18.909,-41.881 41.88,-41.881l167.52,0c22.975,0 41.88,18.91 41.88,41.891l-0,223.428c-0.005,22.976 -18.909,41.881 -41.88,41.881l-59.983,-0c2.662,-22.889 3.758,-35.24 9.173,-41.928c4.357,-5.381 9.978,-11.074 10.201,-17.807c0.326,-9.833 -4.597,-15.041 -9.255,-19.469c-7.863,-7.475 -14.248,-11.431 -25.26,-12.127c-2.755,-0.174 -5.499,-0.1 -8.17,0.217c-2.972,0.405 -7.36,1.055 -10.562,-1.889c-4.35,-3.999 -8.844,-8.984 -13.595,-19.608c-3.252,-7.272 -3.652,-16.31 -2.593,-22.098c1.687,-9.227 8.698,-16.348 22.267,-17.916c12.8,-1.479 24.16,-3.9 34.095,-7.963c36.06,-14.747 54.418,-56.244 67.403,-108.539c0.665,-2.679 -0.066,-5.513 -1.945,-7.535c-1.878,-2.022 -4.65,-2.96 -7.37,-2.493c-79.166,13.639 -129.181,42.873 -127.025,100.001c0.15,3.963 0.064,9.603 -1.605,12.85c-1.661,3.229 -2.917,5.225 -4.422,8.201c-0.84,1.661 -2.199,3.023 -4.138,3.147c-1.482,0.095 -3.837,-1.062 -7.089,-5.999c-3.36,-5.1 -5.052,-11.822 -6.492,-25.761c-1.137,-10.997 -13.911,-12.111 -22.694,-9.392c-12.806,3.964 -15.804,18.249 -8.548,27.268c15.743,19.567 34.929,49.412 40.177,57.839c4.071,6.538 18.378,25.738 25.46,41.052c1.499,3.67 2.231,7.608 2.152,11.571c-0.025,7.052 1.15,13.717 1.836,20.082c0,0 2.491,17.603 3.326,38.297Z"/>
	<defs>
		<linearGradient id="linear" x1="0" x2="1" y1="0" y2="0"
			gradientTransform="rotate(-90 234.92 59.518)scale(281.67339)" gradientUnits="userSpaceOnUse">
			<stop offset="0" style="stop-color:#0c9949;stop-opacity:1" />
			<stop offset="1" style="stop-color:#25b354;stop-opacity:1" />
		</linearGradient>
	</defs>
</svg>